<svg width="19" height="19" viewBox="0 0 19 19" fill="none" xmlns="http://www.w3.org/2000/svg">
<path fill-rule="evenodd" clip-rule="evenodd" d="M2.49819 14.8504C-0.832729 11.4532 -0.832729 5.94516 2.49819 2.54793C5.8291 -0.849309 11.2296 -0.849309 14.5605 2.54793C17.605 5.65304 17.8668 10.5215 15.3459 13.9299L18.7105 17.3615C19.5882 18.2567 18.2721 19.5994 17.3942 18.7052L17.3942 18.7052L14.0693 15.3141C10.7182 18.2399 5.66994 18.0853 2.49819 14.8504ZM13.2436 3.89103C10.64 1.23554 6.41864 1.23554 3.815 3.89103C1.21136 6.54651 1.21136 10.8519 3.815 13.5074C6.41864 16.1629 10.64 16.1629 13.2436 13.5074C15.8473 10.8519 15.8473 6.54651 13.2436 3.89103Z" fill="#A6A7B2"/>
</svg>
